<svg xmlns="http://www.w3.org/2000/svg"  viewBox="0 0 100 100" width="100px" height="100px" baseProfile="basic"><path fill="#ead6c7" d="M26,29v39.255c0,3.049,1.16,5.983,3.246,8.207l9.384,10.01C40.142,88.085,42.255,89,44.466,89h11.068	c2.211,0,4.324-0.915,5.836-2.528l9.384-10.01C72.84,74.238,74,71.303,74,68.255V29H26z"/><path fill="#1f212b" d="M55.534,90H44.466c-2.479,0-4.872-1.037-6.565-2.845l-9.385-10.01C26.248,74.727,25,71.569,25,68.255	V29c0-0.553,0.447-1,1-1h48c0.553,0,1,0.447,1,1v39.255c0,3.314-1.248,6.472-3.516,8.891L62.1,87.155	C60.406,88.963,58.013,90,55.534,90z M27,30v38.255c0,2.805,1.057,5.477,2.975,7.523l9.385,10.01C40.677,87.193,42.538,88,44.466,88	h11.068c1.928,0,3.789-0.807,5.106-2.212l9.385-10.01C71.943,73.731,73,71.06,73,68.255V30H27z"/><path fill="#1f212b" d="M50.125,73c-6.599,0-11.673-1-11.723-1.01c-0.271-0.054-0.446-0.317-0.393-0.588	c0.054-0.271,0.312-0.45,0.588-0.393c0.05,0.01,5.034,0.99,11.527,0.99c6.247,0,11.228-0.98,11.277-0.99	c0.268-0.057,0.533,0.121,0.588,0.393c0.054,0.271-0.121,0.534-0.393,0.588C61.548,72,56.476,73,50.125,73z"/><path fill="#1f212b" d="M50,76.753c-1.786,0-3.572-0.256-5.621-0.768c-0.269-0.067-0.431-0.339-0.364-0.606	c0.066-0.269,0.332-0.429,0.606-0.364c3.922,0.98,6.836,0.98,10.758,0c0.263-0.065,0.54,0.096,0.606,0.364	c0.066,0.268-0.096,0.539-0.364,0.606C53.572,76.497,51.786,76.753,50,76.753z"/><path fill="#1f212b" d="M47.5,67c-0.182,0-0.357-0.1-0.445-0.272c-0.038-0.073-0.879-1.593-3.396-0.753	c-0.263,0.089-0.545-0.055-0.633-0.316c-0.087-0.262,0.055-0.545,0.316-0.633c3.376-1.127,4.594,1.227,4.605,1.251	c0.123,0.247,0.023,0.547-0.224,0.671C47.651,66.983,47.575,67,47.5,67z"/><path fill="#1f212b" d="M47.5,62c-0.053,0-0.105-0.008-0.158-0.025c-0.262-0.088-0.403-0.371-0.316-0.633	c0.915-2.745,0.035-4.602,0.026-4.62c-0.121-0.247-0.02-0.547,0.228-0.669c0.246-0.121,0.544-0.022,0.668,0.224	c0.045,0.089,1.08,2.222,0.027,5.382C47.904,61.867,47.709,62,47.5,62z"/><path fill="#1f212b" d="M52.5,67c-0.075,0-0.151-0.017-0.224-0.053c-0.247-0.124-0.347-0.424-0.224-0.671	c0.011-0.022,1.097-2.131,4.076-1.403c0.059-0.42,0.055-0.977-0.216-1.352C55.661,63.176,55.187,63,54.5,63	c-0.276,0-0.5-0.224-0.5-0.5s0.224-0.5,0.5-0.5c1.027,0,1.776,0.316,2.226,0.939c0.781,1.083,0.271,2.652,0.249,2.719	c-0.087,0.263-0.371,0.406-0.633,0.316c-2.559-0.854-3.387,0.733-3.395,0.749C52.859,66.898,52.683,67,52.5,67z"/><path fill="#f5905f" d="M61.5,38.5l1,6l-8.154,3.182C52.961,48.223,51.487,48.5,50,48.5h0c-1.487,0-2.961-0.277-4.346-0.818	L37.5,44.5l1-6c-4,1-9,3-12,8v9l5.674,3.546c1.52,0.95,3.276,1.454,5.068,1.454h0c1.485,0,2.949-0.346,4.277-1.01l3.745-1.872	C46.734,56.883,48.356,56.5,50,56.5h0c1.644,0,3.266,0.383,4.736,1.118l3.745,1.872c1.328,0.664,2.792,1.01,4.277,1.01h0	c1.792,0,3.548-0.504,5.068-1.454L73.5,55.5v-9C70.5,41.5,65.5,39.5,61.5,38.5z"/><path fill="#1f212b" d="M62.758,61c-1.555,0-3.11-0.367-4.501-1.063l-3.744-1.872c-2.787-1.395-6.238-1.395-9.025,0	l-3.744,1.872c-3.077,1.54-6.911,1.359-9.833-0.467l-5.675-3.547C26.089,55.833,26,55.673,26,55.5v-9	c0-0.091,0.024-0.18,0.071-0.257c2.446-4.078,6.473-6.77,12.308-8.229c0.164-0.04,0.338,0.004,0.46,0.118	c0.124,0.114,0.182,0.283,0.154,0.449l-0.934,5.6l7.776,3.034c2.664,1.041,5.664,1.041,8.328,0l7.776-3.034l-0.934-5.6	c-0.027-0.166,0.03-0.335,0.154-0.449c0.123-0.114,0.297-0.158,0.46-0.118c5.835,1.459,9.861,4.15,12.308,8.229	C73.976,46.32,74,46.409,74,46.5v9c0,0.173-0.089,0.333-0.235,0.424l-5.675,3.547C66.488,60.472,64.645,61,62.758,61z M50,56	c1.713,0,3.428,0.405,4.96,1.171l3.744,1.872c2.772,1.387,6.227,1.223,8.856-0.42l5.439-3.4V46.64	c-2.205-3.602-5.771-6.047-10.88-7.46l0.873,5.238c0.039,0.233-0.091,0.462-0.312,0.548l-8.154,3.182	c-2.896,1.131-6.158,1.131-9.055,0l-8.154-3.182c-0.221-0.086-0.351-0.314-0.312-0.548l0.873-5.238	c-5.109,1.413-8.675,3.858-10.88,7.46v8.583l5.439,3.4c2.631,1.643,6.085,1.807,8.856,0.42l3.744-1.872	C46.572,56.405,48.287,56,50,56z"/><path fill="#f9e65c" d="M54.5,52.5l0.538-0.538c0.953-0.953,2.167-1.603,3.489-1.867L66.5,48.5l0.197,0.59	c0.492,1.477,0.108,3.105-0.993,4.206v0c-0.771,0.771-1.816,1.204-2.906,1.204h-3.469C57.517,54.5,55.781,53.781,54.5,52.5	L54.5,52.5z"/><path fill="#1f212b" d="M62.798,55h-3.47c-1.929,0-3.817-0.782-5.182-2.146c-0.195-0.195-0.195-0.512,0-0.707l0.538-0.538	c1.026-1.026,2.321-1.719,3.745-2.004l7.973-1.595c0.249-0.051,0.492,0.094,0.572,0.332l0.196,0.59	c0.556,1.667,0.13,3.475-1.113,4.718C65.187,54.521,64.029,55,62.798,55z M55.222,52.485C56.359,53.453,57.829,54,59.328,54h3.47	c0.964,0,1.871-0.376,2.553-1.058c0.974-0.974,1.308-2.389,0.871-3.694l-0.057-0.171l-7.54,1.508	c-1.229,0.246-2.348,0.845-3.233,1.73L55.222,52.485z"/><path fill="#f9e65c" d="M45.5,52.5l-0.538-0.538c-0.953-0.953-2.167-1.603-3.489-1.867L33.5,48.5l-0.197,0.59	c-0.492,1.477-0.108,3.105,0.993,4.206l0,0c0.771,0.771,1.816,1.204,2.906,1.204h3.469C42.483,54.5,44.219,53.781,45.5,52.5	L45.5,52.5z"/><path fill="#1f212b" d="M40.672,55h-3.47c-1.231,0-2.389-0.479-3.26-1.351c-1.243-1.243-1.669-3.051-1.113-4.718l0.196-0.59	c0.08-0.238,0.327-0.383,0.572-0.332l7.973,1.595c1.424,0.285,2.719,0.978,3.745,2.004l0.538,0.538c0.195,0.195,0.195,0.512,0,0.707	C44.489,54.218,42.601,55,40.672,55z M33.835,49.077l-0.057,0.171c-0.437,1.306-0.103,2.721,0.871,3.694	C35.331,53.624,36.238,54,37.202,54h3.47c1.499,0,2.969-0.547,4.106-1.515l-0.17-0.17c-0.886-0.886-2.004-1.484-3.233-1.73	L33.835,49.077z"/><path fill="#444445" d="M26,47l-4-3l-1-12l3-6l-6,1c0,0,10-21,33-11c0,0,16-9,30,8h-4l2,7l-1,13l-4,4V35c0,0-6,0-11-4v4	c0,0-8-2-11-5c0,0-1,4-10,7c0,0,2-3,3-7c0,0-7,6-12,7c0,0,4-3,5-7l-12,6V47z"/><path fill="#1f212b" d="M74,49c-0.129,0-0.259-0.024-0.383-0.076C73.243,48.77,73,48.404,73,48V35.945	c-1.729-0.154-5.418-0.746-9-3.008V35c0,0.308-0.142,0.599-0.385,0.788c-0.242,0.19-0.559,0.26-0.857,0.182	c-0.306-0.076-6.841-1.731-10.429-4.382c-1.027,1.583-3.615,4.229-10.013,6.36c-0.406,0.139-0.851-0.002-1.11-0.341	s-0.274-0.806-0.039-1.161c0.014-0.021,0.955-1.451,1.841-3.607c-2.567,1.894-6.54,4.487-9.812,5.142	c-0.457,0.099-0.917-0.146-1.108-0.571c-0.19-0.426-0.062-0.928,0.312-1.208c0.028-0.022,2.222-1.694,3.642-4.104L27,36.618V47	c0,0.379-0.214,0.725-0.553,0.895c-0.34,0.168-0.745,0.133-1.047-0.095l-4-3c-0.229-0.171-0.373-0.432-0.396-0.717l-1-12	c-0.016-0.183,0.02-0.366,0.102-0.53l2.122-4.243l-4.063,0.677c-0.367,0.058-0.738-0.087-0.963-0.385	c-0.224-0.298-0.265-0.695-0.104-1.031c0.104-0.218,10.555-21.491,33.871-11.672c2.788-1.323,17.771-7.363,30.804,8.466	c0.246,0.299,0.298,0.713,0.133,1.063S81.387,25,81,25h-2.674l1.636,5.726c0.032,0.114,0.044,0.232,0.035,0.352l-1,13	c-0.019,0.237-0.121,0.461-0.29,0.63l-4,4C74.516,48.898,74.26,49,74,49z M63,30c0.223,0,0.444,0.074,0.625,0.219	C68.274,33.939,73.945,34,74.002,34C74.553,34.002,75,34.449,75,35v10.586l2.031-2.031l0.958-12.452l-1.951-6.828	c-0.086-0.302-0.025-0.626,0.163-0.877C76.391,23.147,76.687,23,77,23h1.801c-12.893-13.928-26.71-6.465-27.312-6.128	c-0.271,0.152-0.601,0.171-0.888,0.045c-18.135-7.882-27.75,4.032-30.706,8.753l3.94-0.656c0.367-0.062,0.745,0.09,0.969,0.393	c0.224,0.302,0.258,0.704,0.09,1.041l-2.875,5.749l0.939,11.273L25,45v-9c0-0.379,0.214-0.725,0.553-0.895l12-6	c0.349-0.173,0.768-0.131,1.073,0.114c0.305,0.244,0.438,0.644,0.344,1.022c-0.392,1.568-1.19,2.981-2.055,4.15	c3.771-2.032,7.385-5.109,7.435-5.152c0.329-0.283,0.807-0.319,1.176-0.091c0.37,0.229,0.551,0.671,0.444,1.093	c-0.478,1.911-1.168,3.595-1.781,4.863c5.95-2.543,6.837-5.336,6.847-5.367c0.1-0.339,0.373-0.61,0.715-0.697	c0.339-0.084,0.707,0.002,0.957,0.252c2.09,2.09,6.986,3.714,9.293,4.392V31c0-0.385,0.221-0.734,0.566-0.901	C62.704,30.032,62.853,30,63,30z"/><path fill="#ead6c7" d="M76.631,66L76.631,66C75.178,66,74,64.822,74,63.369V50.316C74,48.485,75.485,47,77.316,47h0	c1.969,0,3.504,1.705,3.298,3.663l-1.366,12.981C79.107,64.983,77.978,66,76.631,66z"/><path fill="#ead6c7" d="M23.369,66L23.369,66C24.822,66,26,64.822,26,63.369V50.316C26,48.485,24.515,47,22.684,47h0	c-1.969,0-3.504,1.705-3.298,3.663l1.366,12.981C20.893,64.983,22.022,66,23.369,66z"/><path fill="#1f212b" d="M76.631,67C74.629,67,73,65.371,73,63.369V50.316C73,47.937,74.937,46,77.316,46	c1.222,0,2.391,0.521,3.208,1.429c0.816,0.907,1.212,2.124,1.084,3.339l-1.366,12.981C80.048,65.603,78.495,67,76.631,67z M77.316,48C76.039,48,75,49.039,75,50.316v13.053C75,64.269,75.731,65,76.631,65c0.838,0,1.535-0.628,1.623-1.46l1.366-12.981	c0.069-0.661-0.138-1.298-0.582-1.792C78.593,48.272,77.981,48,77.316,48z"/><path fill="#1f212b" d="M23.369,67c-1.864,0-3.417-1.397-3.611-3.251l-1.366-12.981c-0.128-1.215,0.268-2.432,1.084-3.339	C20.293,46.521,21.462,46,22.684,46C25.063,46,27,47.937,27,50.316v13.053C27,65.371,25.371,67,23.369,67z M22.684,48	c-0.665,0-1.276,0.272-1.722,0.767c-0.444,0.494-0.651,1.131-0.582,1.792l1.366,12.981c0.088,0.832,0.785,1.46,1.623,1.46	C24.269,65,25,64.269,25,63.369V50.316C25,49.039,23.961,48,22.684,48z"/><path fill="#1f212b" d="M40,69c0,0-2,2-2,6c0,0-2-2-1-5L40,69z"/><path fill="#1f212b" d="M60,69c0,0,2,2,2,6c0,0,2-2,1-5L60,69z"/><path fill="#1f212b" d="M49.406,20.168c-0.066,0-0.135-0.014-0.199-0.041c-6.871-2.987-13.041-3.123-18.346-0.273	c-0.242,0.129-0.547,0.04-0.677-0.204c-0.131-0.243-0.039-0.546,0.204-0.677c5.573-2.995,12.059-2.874,19.217,0.236	c0.253,0.11,0.369,0.405,0.26,0.658C49.783,20.056,49.599,20.168,49.406,20.168z"/><path fill="#1f212b" d="M26.193,23.157c-0.132,0-0.264-0.052-0.361-0.154c-0.191-0.2-0.184-0.517,0.016-0.707	c0.671-0.641,1.379-1.238,2.104-1.776c0.223-0.161,0.535-0.116,0.7,0.104c0.164,0.223,0.117,0.535-0.104,0.7	c-0.693,0.513-1.369,1.082-2.009,1.694C26.442,23.111,26.317,23.157,26.193,23.157z"/></svg>